G75*
%MOIN*%
%OFA0B0*%
%FSLAX25Y25*%
%IPPOS*%
%LPD*%
%AMOC8*
5,1,8,0,0,1.08239X$1,22.5*
%
%ADD10C,0.00500*%
%ADD11C,0.00600*%
%ADD12C,0.00400*%
%ADD13C,0.00800*%
D10*
X0020473Y0016311D02*
X0020473Y0017813D01*
X0020473Y0017062D02*
X0024977Y0017062D01*
X0024977Y0016311D02*
X0024977Y0017813D01*
X0024977Y0019381D02*
X0020473Y0019381D01*
X0024977Y0022383D01*
X0020473Y0022383D01*
X0020473Y0023985D02*
X0020473Y0026987D01*
X0020473Y0025486D02*
X0024977Y0025486D01*
X0024226Y0035544D02*
X0021224Y0035544D01*
X0020473Y0036295D01*
X0020473Y0037796D01*
X0021224Y0038547D01*
X0022725Y0038547D02*
X0022725Y0037045D01*
X0022725Y0038547D02*
X0024226Y0038547D01*
X0024977Y0037796D01*
X0024977Y0036295D01*
X0024226Y0035544D01*
X0024977Y0040148D02*
X0020473Y0040148D01*
X0024977Y0043151D01*
X0020473Y0043151D01*
X0020473Y0044752D02*
X0020473Y0047004D01*
X0021224Y0047755D01*
X0024226Y0047755D01*
X0024977Y0047004D01*
X0024977Y0044752D01*
X0020473Y0044752D01*
X0020473Y0055544D02*
X0024977Y0055544D01*
X0024977Y0058547D01*
X0024977Y0060148D02*
X0020473Y0063151D01*
X0020473Y0064752D02*
X0020473Y0067755D01*
X0020473Y0066253D02*
X0024977Y0066253D01*
X0024977Y0063151D02*
X0020473Y0060148D01*
X0020473Y0058547D02*
X0020473Y0055544D01*
X0022725Y0055544D02*
X0022725Y0057045D01*
X0120473Y0056245D02*
X0120473Y0053242D01*
X0122725Y0053242D01*
X0121974Y0054743D01*
X0121974Y0055494D01*
X0122725Y0056245D01*
X0124226Y0056245D01*
X0124977Y0055494D01*
X0124977Y0053993D01*
X0124226Y0053242D01*
X0123476Y0057846D02*
X0120473Y0057846D01*
X0123476Y0057846D02*
X0124977Y0059347D01*
X0123476Y0060849D01*
X0120473Y0060849D01*
X0120473Y0062450D02*
X0120473Y0064702D01*
X0121224Y0065453D01*
X0124226Y0065453D01*
X0124977Y0064702D01*
X0124977Y0062450D01*
X0120473Y0062450D01*
X0121224Y0067054D02*
X0124226Y0067054D01*
X0124977Y0067805D01*
X0124977Y0069306D01*
X0124226Y0070056D01*
X0121224Y0070056D02*
X0120473Y0069306D01*
X0120473Y0067805D01*
X0121224Y0067054D01*
X0121224Y0047755D02*
X0120473Y0047004D01*
X0120473Y0044752D01*
X0124977Y0044752D01*
X0124977Y0047004D01*
X0124226Y0047755D01*
X0121224Y0047755D01*
X0120473Y0043151D02*
X0124977Y0043151D01*
X0120473Y0040148D01*
X0124977Y0040148D01*
X0124226Y0038547D02*
X0122725Y0038547D01*
X0122725Y0037045D01*
X0121224Y0035544D02*
X0120473Y0036295D01*
X0120473Y0037796D01*
X0121224Y0038547D01*
X0124226Y0038547D02*
X0124977Y0037796D01*
X0124977Y0036295D01*
X0124226Y0035544D01*
X0121224Y0035544D01*
X0120473Y0027755D02*
X0120473Y0024752D01*
X0120473Y0026253D02*
X0124977Y0026253D01*
X0124226Y0023151D02*
X0120473Y0023151D01*
X0120473Y0020148D02*
X0124226Y0020148D01*
X0124977Y0020899D01*
X0124977Y0022400D01*
X0124226Y0023151D01*
X0124226Y0018547D02*
X0121224Y0018547D01*
X0120473Y0017796D01*
X0120473Y0016295D01*
X0121224Y0015544D01*
X0124226Y0015544D01*
X0124977Y0016295D01*
X0124977Y0017796D01*
X0124226Y0018547D01*
D11*
X0117727Y0019200D02*
X0117727Y0017200D01*
X0115727Y0017200D01*
X0109727Y0017200D02*
X0107727Y0017200D01*
X0107727Y0019200D01*
X0107727Y0025200D02*
X0107727Y0027200D01*
X0109727Y0027200D01*
X0115727Y0027200D02*
X0117727Y0027200D01*
X0117727Y0025200D01*
X0117727Y0037200D02*
X0115727Y0037200D01*
X0117727Y0037200D02*
X0117727Y0039200D01*
X0117727Y0045200D02*
X0117727Y0047200D01*
X0115727Y0047200D01*
X0109727Y0047200D02*
X0107727Y0047200D01*
X0107727Y0045200D01*
X0107727Y0039200D02*
X0107727Y0037200D01*
X0109727Y0037200D01*
X0099727Y0029700D02*
X0092727Y0029700D01*
X0092727Y0016700D01*
X0099727Y0016700D01*
X0099727Y0029700D01*
X0090727Y0030700D02*
X0090727Y0023700D01*
X0077727Y0023700D01*
X0077727Y0030700D01*
X0090727Y0030700D01*
X0090727Y0022700D02*
X0090727Y0015700D01*
X0077727Y0015700D01*
X0077727Y0022700D01*
X0090727Y0022700D01*
X0074227Y0016700D02*
X0074227Y0029700D01*
X0067227Y0029700D01*
X0067227Y0016700D01*
X0074227Y0016700D01*
X0064227Y0015700D02*
X0064227Y0022700D01*
X0051227Y0022700D01*
X0051227Y0015700D01*
X0064227Y0015700D01*
X0064227Y0023700D02*
X0051227Y0023700D01*
X0051227Y0030700D01*
X0064227Y0030700D01*
X0064227Y0023700D01*
X0048727Y0028700D02*
X0048727Y0015700D01*
X0041727Y0015700D01*
X0041727Y0028700D01*
X0048727Y0028700D01*
X0051940Y0035602D02*
X0055325Y0035602D01*
X0055325Y0038444D01*
X0050129Y0040216D02*
X0050129Y0042184D01*
X0055325Y0043956D02*
X0055325Y0046798D01*
X0051940Y0046798D01*
X0051227Y0053700D02*
X0051227Y0060700D01*
X0064227Y0060700D01*
X0064227Y0053700D01*
X0051227Y0053700D01*
X0048727Y0055700D02*
X0048727Y0068700D01*
X0041727Y0068700D01*
X0041727Y0055700D01*
X0048727Y0055700D01*
X0051227Y0061700D02*
X0064227Y0061700D01*
X0064227Y0068700D01*
X0051227Y0068700D01*
X0051227Y0061700D01*
X0037727Y0059200D02*
X0037727Y0057200D01*
X0035727Y0057200D01*
X0029727Y0057200D02*
X0027727Y0057200D01*
X0027727Y0059200D01*
X0027727Y0065200D02*
X0027727Y0067200D01*
X0029727Y0067200D01*
X0035727Y0067200D02*
X0037727Y0067200D01*
X0037727Y0065200D01*
X0037727Y0047200D02*
X0035727Y0047200D01*
X0037727Y0047200D02*
X0037727Y0045200D01*
X0029727Y0047200D02*
X0027727Y0047200D01*
X0027727Y0045200D01*
X0027727Y0039200D02*
X0027727Y0037200D01*
X0029727Y0037200D01*
X0035727Y0037200D02*
X0037727Y0037200D01*
X0037727Y0039200D01*
X0037727Y0027200D02*
X0035727Y0027200D01*
X0037727Y0027200D02*
X0037727Y0025200D01*
X0029727Y0027200D02*
X0027727Y0027200D01*
X0027727Y0025200D01*
X0027727Y0019200D02*
X0027727Y0017200D01*
X0029727Y0017200D01*
X0035727Y0017200D02*
X0037727Y0017200D01*
X0037727Y0019200D01*
X0067227Y0054700D02*
X0067227Y0067700D01*
X0074227Y0067700D01*
X0074227Y0054700D01*
X0067227Y0054700D01*
X0081227Y0058700D02*
X0081227Y0065700D01*
X0094227Y0065700D01*
X0094227Y0058700D01*
X0081227Y0058700D01*
X0107727Y0059200D02*
X0107727Y0057200D01*
X0109727Y0057200D01*
X0115727Y0057200D02*
X0117727Y0057200D01*
X0117727Y0059200D01*
X0117727Y0065200D02*
X0117727Y0067200D01*
X0115727Y0067200D01*
X0109727Y0067200D02*
X0107727Y0067200D01*
X0107727Y0065200D01*
D12*
X0087512Y0068702D02*
X0085110Y0068702D01*
X0086912Y0070503D01*
X0086912Y0066900D01*
X0083829Y0067501D02*
X0083229Y0066900D01*
X0082028Y0066900D01*
X0081427Y0067501D01*
X0081427Y0069903D01*
X0082028Y0070503D01*
X0083229Y0070503D01*
X0083829Y0069903D01*
X0074012Y0068900D02*
X0071610Y0068900D01*
X0074012Y0071302D01*
X0074012Y0071903D01*
X0073412Y0072503D01*
X0072211Y0072503D01*
X0071610Y0071903D01*
X0070329Y0071903D02*
X0070329Y0070702D01*
X0069729Y0070101D01*
X0067927Y0070101D01*
X0067927Y0068900D02*
X0067927Y0072503D01*
X0069729Y0072503D01*
X0070329Y0071903D01*
X0069128Y0070101D02*
X0070329Y0068900D01*
X0058012Y0069900D02*
X0055610Y0069900D01*
X0056811Y0069900D02*
X0056811Y0073503D01*
X0055610Y0072302D01*
X0054329Y0071702D02*
X0053729Y0071101D01*
X0051927Y0071101D01*
X0051927Y0069900D02*
X0051927Y0073503D01*
X0053729Y0073503D01*
X0054329Y0072903D01*
X0054329Y0071702D01*
X0053128Y0071101D02*
X0054329Y0069900D01*
X0054329Y0074900D02*
X0053128Y0076101D01*
X0053729Y0076101D02*
X0051927Y0076101D01*
X0053729Y0076101D02*
X0054329Y0076702D01*
X0054329Y0077903D01*
X0053729Y0078503D01*
X0051927Y0078503D01*
X0051927Y0074900D01*
X0055610Y0075501D02*
X0056211Y0074900D01*
X0057412Y0074900D01*
X0058012Y0075501D01*
X0058012Y0076101D01*
X0057412Y0076702D01*
X0055610Y0076702D01*
X0055610Y0075501D01*
X0055610Y0076702D02*
X0056811Y0077903D01*
X0058012Y0078503D01*
X0046811Y0073503D02*
X0046811Y0069900D01*
X0045610Y0069900D02*
X0048012Y0069900D01*
X0045610Y0072302D02*
X0046811Y0073503D01*
X0044329Y0072903D02*
X0043729Y0073503D01*
X0042528Y0073503D01*
X0041927Y0072903D01*
X0041927Y0070501D01*
X0042528Y0069900D01*
X0043729Y0069900D01*
X0044329Y0070501D01*
X0044927Y0052503D02*
X0046729Y0052503D01*
X0047329Y0051903D01*
X0047329Y0049501D01*
X0046729Y0048900D01*
X0044927Y0048900D01*
X0044927Y0052503D01*
X0048610Y0051302D02*
X0049811Y0052503D01*
X0049811Y0048900D01*
X0048610Y0048900D02*
X0051012Y0048900D01*
X0077927Y0053501D02*
X0078528Y0052900D01*
X0079729Y0052900D01*
X0080329Y0053501D01*
X0080329Y0056503D01*
X0081610Y0055302D02*
X0082811Y0056503D01*
X0082811Y0052900D01*
X0081610Y0052900D02*
X0084012Y0052900D01*
X0077927Y0053501D02*
X0077927Y0056503D01*
X0072545Y0015503D02*
X0070744Y0013702D01*
X0073146Y0013702D01*
X0072545Y0015503D02*
X0072545Y0011900D01*
X0069463Y0011900D02*
X0068262Y0013101D01*
X0068862Y0013101D02*
X0069463Y0013702D01*
X0069463Y0014903D01*
X0068862Y0015503D01*
X0067061Y0015503D01*
X0067061Y0011900D01*
X0067061Y0013101D02*
X0068862Y0013101D01*
X0058146Y0013302D02*
X0057545Y0012702D01*
X0058146Y0012101D01*
X0058146Y0011501D01*
X0057545Y0010900D01*
X0056344Y0010900D01*
X0055744Y0011501D01*
X0054463Y0010900D02*
X0053262Y0012101D01*
X0053862Y0012101D02*
X0052061Y0012101D01*
X0052061Y0010900D02*
X0052061Y0014503D01*
X0053862Y0014503D01*
X0054463Y0013903D01*
X0054463Y0012702D01*
X0053862Y0012101D01*
X0053862Y0009503D02*
X0052061Y0009503D01*
X0052061Y0005900D01*
X0052061Y0007101D02*
X0053862Y0007101D01*
X0054463Y0007702D01*
X0054463Y0008903D01*
X0053862Y0009503D01*
X0055744Y0009503D02*
X0058146Y0009503D01*
X0058146Y0008903D01*
X0055744Y0006501D01*
X0055744Y0005900D01*
X0054463Y0005900D02*
X0053262Y0007101D01*
X0047646Y0010900D02*
X0045244Y0010900D01*
X0047646Y0013302D01*
X0047646Y0013903D01*
X0047045Y0014503D01*
X0045844Y0014503D01*
X0045244Y0013903D01*
X0043963Y0013903D02*
X0043362Y0014503D01*
X0042161Y0014503D01*
X0041561Y0013903D01*
X0041561Y0011501D01*
X0042161Y0010900D01*
X0043362Y0010900D01*
X0043963Y0011501D01*
X0055744Y0013903D02*
X0056344Y0014503D01*
X0057545Y0014503D01*
X0058146Y0013903D01*
X0058146Y0013302D01*
X0057545Y0012702D02*
X0056945Y0012702D01*
X0083561Y0012101D02*
X0085362Y0012101D01*
X0085963Y0012702D01*
X0085963Y0013903D01*
X0085362Y0014503D01*
X0083561Y0014503D01*
X0083561Y0010900D01*
X0084161Y0009503D02*
X0083561Y0008903D01*
X0083561Y0006501D01*
X0084161Y0005900D01*
X0085362Y0005900D01*
X0085963Y0006501D01*
X0087244Y0006501D02*
X0087844Y0005900D01*
X0089045Y0005900D01*
X0089646Y0006501D01*
X0089646Y0007101D01*
X0089045Y0007702D01*
X0088445Y0007702D01*
X0089045Y0007702D02*
X0089646Y0008302D01*
X0089646Y0008903D01*
X0089045Y0009503D01*
X0087844Y0009503D01*
X0087244Y0008903D01*
X0085963Y0008903D02*
X0085362Y0009503D01*
X0084161Y0009503D01*
X0085963Y0010900D02*
X0084762Y0012101D01*
X0087244Y0011501D02*
X0087844Y0010900D01*
X0089045Y0010900D01*
X0089646Y0011501D01*
X0089646Y0012702D01*
X0089045Y0013302D01*
X0088445Y0013302D01*
X0087244Y0012702D01*
X0087244Y0014503D01*
X0089646Y0014503D01*
X0092561Y0015503D02*
X0094362Y0015503D01*
X0094963Y0014903D01*
X0094963Y0013702D01*
X0094362Y0013101D01*
X0092561Y0013101D01*
X0093762Y0013101D02*
X0094963Y0011900D01*
X0096244Y0012501D02*
X0096244Y0013101D01*
X0096844Y0013702D01*
X0098045Y0013702D01*
X0098646Y0013101D01*
X0098646Y0012501D01*
X0098045Y0011900D01*
X0096844Y0011900D01*
X0096244Y0012501D01*
X0096844Y0013702D02*
X0096244Y0014302D01*
X0096244Y0014903D01*
X0096844Y0015503D01*
X0098045Y0015503D01*
X0098646Y0014903D01*
X0098646Y0014302D01*
X0098045Y0013702D01*
X0092561Y0011900D02*
X0092561Y0015503D01*
D13*
X0087727Y0032751D02*
X0077727Y0032751D01*
X0077727Y0051649D01*
X0081227Y0051649D01*
X0081229Y0051573D01*
X0081235Y0051497D01*
X0081244Y0051422D01*
X0081258Y0051347D01*
X0081275Y0051273D01*
X0081296Y0051200D01*
X0081320Y0051128D01*
X0081349Y0051057D01*
X0081380Y0050988D01*
X0081415Y0050921D01*
X0081454Y0050856D01*
X0081496Y0050792D01*
X0081541Y0050731D01*
X0081589Y0050672D01*
X0081640Y0050616D01*
X0081694Y0050562D01*
X0081750Y0050511D01*
X0081809Y0050463D01*
X0081870Y0050418D01*
X0081934Y0050376D01*
X0081999Y0050337D01*
X0082066Y0050302D01*
X0082135Y0050271D01*
X0082206Y0050242D01*
X0082278Y0050218D01*
X0082351Y0050197D01*
X0082425Y0050180D01*
X0082500Y0050166D01*
X0082575Y0050157D01*
X0082651Y0050151D01*
X0082727Y0050149D01*
X0082803Y0050151D01*
X0082879Y0050157D01*
X0082954Y0050166D01*
X0083029Y0050180D01*
X0083103Y0050197D01*
X0083176Y0050218D01*
X0083248Y0050242D01*
X0083319Y0050271D01*
X0083388Y0050302D01*
X0083455Y0050337D01*
X0083520Y0050376D01*
X0083584Y0050418D01*
X0083645Y0050463D01*
X0083704Y0050511D01*
X0083760Y0050562D01*
X0083814Y0050616D01*
X0083865Y0050672D01*
X0083913Y0050731D01*
X0083958Y0050792D01*
X0084000Y0050856D01*
X0084039Y0050921D01*
X0084074Y0050988D01*
X0084105Y0051057D01*
X0084134Y0051128D01*
X0084158Y0051200D01*
X0084179Y0051273D01*
X0084196Y0051347D01*
X0084210Y0051422D01*
X0084219Y0051497D01*
X0084225Y0051573D01*
X0084227Y0051649D01*
X0087727Y0051649D01*
X0087727Y0032751D01*
M02*
