G75*
%MOIN*%
%OFA0B0*%
%FSLAX25Y25*%
%IPPOS*%
%LPD*%
%AMOC8*
5,1,8,0,0,1.08239X$1,22.5*
%
%ADD10C,0.00000*%
%ADD11OC8,0.10000*%
%ADD12C,0.02400*%
%ADD13OC8,0.02775*%
D10*
X0012727Y0002200D02*
X0012727Y0080940D01*
X0130837Y0080940D01*
X0130837Y0002200D01*
X0012727Y0002200D01*
D11*
X0032727Y0022200D03*
X0032727Y0042200D03*
X0032727Y0062200D03*
X0112727Y0062200D03*
X0112727Y0042200D03*
X0112727Y0022200D03*
D12*
X0105327Y0021388D02*
X0040127Y0021388D01*
X0040127Y0019135D02*
X0035792Y0014800D01*
X0029662Y0014800D01*
X0025327Y0019135D01*
X0025327Y0025265D01*
X0029662Y0029600D01*
X0035792Y0029600D01*
X0040127Y0025265D01*
X0040127Y0019135D01*
X0039982Y0018990D02*
X0105472Y0018990D01*
X0105327Y0019135D02*
X0109662Y0014800D01*
X0115792Y0014800D01*
X0120127Y0019135D01*
X0120127Y0025265D01*
X0115792Y0029600D01*
X0109662Y0029600D01*
X0105327Y0025265D01*
X0105327Y0019135D01*
X0107871Y0016591D02*
X0037583Y0016591D01*
X0027871Y0016591D02*
X0015127Y0016591D01*
X0015127Y0014193D02*
X0128437Y0014193D01*
X0128437Y0011794D02*
X0015127Y0011794D01*
X0015127Y0009396D02*
X0128437Y0009396D01*
X0128437Y0006997D02*
X0015127Y0006997D01*
X0015127Y0004600D02*
X0015127Y0078540D01*
X0128437Y0078540D01*
X0128437Y0004600D01*
X0015127Y0004600D01*
X0015127Y0018990D02*
X0025472Y0018990D01*
X0025327Y0021388D02*
X0015127Y0021388D01*
X0015127Y0023787D02*
X0025327Y0023787D01*
X0026247Y0026185D02*
X0015127Y0026185D01*
X0015127Y0028584D02*
X0028645Y0028584D01*
X0029745Y0035000D02*
X0032727Y0035000D01*
X0032727Y0042200D01*
X0032727Y0042200D01*
X0025527Y0042200D01*
X0025527Y0045182D01*
X0029745Y0049400D01*
X0032727Y0049400D01*
X0032727Y0042200D01*
X0025527Y0042200D01*
X0025527Y0039218D01*
X0029745Y0035000D01*
X0028966Y0035779D02*
X0015127Y0035779D01*
X0015127Y0033381D02*
X0051440Y0033381D01*
X0051440Y0033131D02*
X0053658Y0030913D01*
X0056796Y0030913D01*
X0059014Y0033131D01*
X0059014Y0036269D01*
X0058827Y0036456D01*
X0058827Y0048444D01*
X0059014Y0048631D01*
X0059014Y0048896D01*
X0061218Y0051100D01*
X0086971Y0051100D01*
X0087158Y0050913D01*
X0090296Y0050913D01*
X0092514Y0053131D01*
X0092514Y0056269D01*
X0090296Y0058487D01*
X0087158Y0058487D01*
X0086971Y0058300D01*
X0059011Y0058300D01*
X0057688Y0057752D01*
X0056675Y0056739D01*
X0053923Y0053987D01*
X0053658Y0053987D01*
X0051440Y0051769D01*
X0051440Y0048631D01*
X0051627Y0048444D01*
X0051627Y0036456D01*
X0051440Y0036269D01*
X0051440Y0033131D01*
X0053589Y0030982D02*
X0015127Y0030982D01*
X0015127Y0038178D02*
X0026567Y0038178D01*
X0025527Y0040576D02*
X0015127Y0040576D01*
X0015127Y0042975D02*
X0025527Y0042975D01*
X0025718Y0045373D02*
X0015127Y0045373D01*
X0015127Y0047772D02*
X0028116Y0047772D01*
X0032727Y0047772D02*
X0032727Y0047772D01*
X0032727Y0049400D02*
X0035709Y0049400D01*
X0039927Y0045182D01*
X0039927Y0042200D01*
X0032727Y0042200D01*
X0032727Y0042200D01*
X0032727Y0042200D01*
X0032727Y0049400D01*
X0037338Y0047772D02*
X0051627Y0047772D01*
X0051440Y0050170D02*
X0015127Y0050170D01*
X0015127Y0052569D02*
X0052240Y0052569D01*
X0054903Y0054967D02*
X0035959Y0054967D01*
X0035792Y0054800D02*
X0040127Y0059135D01*
X0040127Y0065265D01*
X0035792Y0069600D01*
X0029662Y0069600D01*
X0025327Y0065265D01*
X0025327Y0059135D01*
X0029662Y0054800D01*
X0035792Y0054800D01*
X0038358Y0057366D02*
X0057302Y0057366D01*
X0059727Y0054700D02*
X0088727Y0054700D01*
X0091417Y0057366D02*
X0107096Y0057366D01*
X0105327Y0059135D02*
X0109662Y0054800D01*
X0115792Y0054800D01*
X0120127Y0059135D01*
X0120127Y0065265D01*
X0115792Y0069600D01*
X0109662Y0069600D01*
X0105327Y0065265D01*
X0105327Y0059135D01*
X0105327Y0059764D02*
X0040127Y0059764D01*
X0040127Y0062163D02*
X0105327Y0062163D01*
X0105327Y0064561D02*
X0040127Y0064561D01*
X0038432Y0066960D02*
X0107022Y0066960D01*
X0109420Y0069358D02*
X0036034Y0069358D01*
X0029420Y0069358D02*
X0015127Y0069358D01*
X0015127Y0071757D02*
X0128437Y0071757D01*
X0128437Y0069358D02*
X0116034Y0069358D01*
X0118432Y0066960D02*
X0128437Y0066960D01*
X0128437Y0064561D02*
X0120127Y0064561D01*
X0120127Y0062163D02*
X0128437Y0062163D01*
X0128437Y0059764D02*
X0120127Y0059764D01*
X0118358Y0057366D02*
X0128437Y0057366D01*
X0128437Y0054967D02*
X0115959Y0054967D01*
X0109495Y0054967D02*
X0092514Y0054967D01*
X0091952Y0052569D02*
X0128437Y0052569D01*
X0128437Y0050170D02*
X0060288Y0050170D01*
X0058827Y0047772D02*
X0108116Y0047772D01*
X0109745Y0049400D02*
X0105527Y0045182D01*
X0105527Y0042200D01*
X0112727Y0042200D01*
X0112727Y0042200D01*
X0105527Y0042200D01*
X0105527Y0039218D01*
X0109745Y0035000D01*
X0112727Y0035000D01*
X0112727Y0042200D01*
X0112727Y0049400D01*
X0109745Y0049400D01*
X0112727Y0049400D02*
X0115709Y0049400D01*
X0119927Y0045182D01*
X0119927Y0042200D01*
X0112727Y0042200D01*
X0112727Y0042200D01*
X0112727Y0042200D01*
X0112727Y0049400D01*
X0112727Y0047772D02*
X0112727Y0047772D01*
X0112727Y0045373D02*
X0112727Y0045373D01*
X0112727Y0042975D02*
X0112727Y0042975D01*
X0112727Y0042200D02*
X0112727Y0042200D01*
X0112727Y0035000D01*
X0115709Y0035000D01*
X0119927Y0039218D01*
X0119927Y0042200D01*
X0112727Y0042200D01*
X0112727Y0040576D02*
X0112727Y0040576D01*
X0112727Y0038178D02*
X0112727Y0038178D01*
X0112727Y0035779D02*
X0112727Y0035779D01*
X0108966Y0035779D02*
X0059014Y0035779D01*
X0059014Y0033381D02*
X0128437Y0033381D01*
X0128437Y0035779D02*
X0116489Y0035779D01*
X0118887Y0038178D02*
X0128437Y0038178D01*
X0128437Y0040576D02*
X0119927Y0040576D01*
X0119927Y0042975D02*
X0128437Y0042975D01*
X0128437Y0045373D02*
X0119736Y0045373D01*
X0117338Y0047772D02*
X0128437Y0047772D01*
X0105718Y0045373D02*
X0058827Y0045373D01*
X0058827Y0042975D02*
X0105527Y0042975D01*
X0105527Y0040576D02*
X0058827Y0040576D01*
X0058827Y0038178D02*
X0106567Y0038178D01*
X0108645Y0028584D02*
X0036809Y0028584D01*
X0039207Y0026185D02*
X0106247Y0026185D01*
X0105327Y0023787D02*
X0040127Y0023787D01*
X0035709Y0035000D02*
X0032727Y0035000D01*
X0032727Y0042200D01*
X0032727Y0042200D01*
X0039927Y0042200D01*
X0039927Y0039218D01*
X0035709Y0035000D01*
X0036489Y0035779D02*
X0051440Y0035779D01*
X0055227Y0034700D02*
X0055227Y0050200D01*
X0059727Y0054700D01*
X0051627Y0045373D02*
X0039736Y0045373D01*
X0039927Y0042975D02*
X0051627Y0042975D01*
X0051627Y0040576D02*
X0039927Y0040576D01*
X0038887Y0038178D02*
X0051627Y0038178D01*
X0056865Y0030982D02*
X0128437Y0030982D01*
X0128437Y0028584D02*
X0116809Y0028584D01*
X0119207Y0026185D02*
X0128437Y0026185D01*
X0128437Y0023787D02*
X0120127Y0023787D01*
X0120127Y0021388D02*
X0128437Y0021388D01*
X0128437Y0018990D02*
X0119982Y0018990D01*
X0117583Y0016591D02*
X0128437Y0016591D01*
X0128437Y0074155D02*
X0015127Y0074155D01*
X0015127Y0076554D02*
X0128437Y0076554D01*
X0032727Y0045373D02*
X0032727Y0045373D01*
X0032727Y0042975D02*
X0032727Y0042975D01*
X0032727Y0040576D02*
X0032727Y0040576D01*
X0032727Y0038178D02*
X0032727Y0038178D01*
X0032727Y0035779D02*
X0032727Y0035779D01*
X0029495Y0054967D02*
X0015127Y0054967D01*
X0015127Y0057366D02*
X0027096Y0057366D01*
X0025327Y0059764D02*
X0015127Y0059764D01*
X0015127Y0062163D02*
X0025327Y0062163D01*
X0025327Y0064561D02*
X0015127Y0064561D01*
X0015127Y0066960D02*
X0027022Y0066960D01*
D13*
X0020227Y0074700D03*
X0035227Y0074700D03*
X0050227Y0074700D03*
X0065227Y0074700D03*
X0076727Y0065200D03*
X0076727Y0059700D03*
X0088727Y0054700D03*
X0080727Y0049700D03*
X0080727Y0042200D03*
X0080727Y0034700D03*
X0055227Y0034700D03*
X0041227Y0034700D03*
X0041227Y0049700D03*
X0055227Y0050200D03*
X0080227Y0074700D03*
X0095227Y0074700D03*
X0110227Y0074700D03*
X0125227Y0074700D03*
X0125227Y0009700D03*
X0110227Y0009700D03*
X0095227Y0009700D03*
X0080227Y0009700D03*
X0065227Y0009700D03*
X0050227Y0009700D03*
X0035227Y0009700D03*
X0020227Y0009700D03*
M02*
