G75*
%MOIN*%
%OFA0B0*%
%FSLAX25Y25*%
%IPPOS*%
%LPD*%
%AMOC8*
5,1,8,0,0,1.08239X$1,22.5*
%
%ADD10C,0.00000*%
%ADD11R,0.05906X0.05118*%
%ADD12R,0.05118X0.05906*%
%ADD13R,0.05512X0.03937*%
%ADD14OC8,0.10000*%
%ADD15R,0.08661X0.02362*%
%ADD16C,0.02400*%
%ADD17OC8,0.02775*%
%ADD18C,0.03200*%
D10*
X0012727Y0002200D02*
X0012727Y0080940D01*
X0130837Y0080940D01*
X0130837Y0002200D01*
X0012727Y0002200D01*
D11*
X0048227Y0019460D03*
X0048227Y0026940D03*
X0072227Y0026940D03*
X0072227Y0019460D03*
X0096227Y0019460D03*
X0096227Y0026940D03*
X0069727Y0057460D03*
X0069727Y0064940D03*
X0045727Y0064940D03*
X0045727Y0057460D03*
D12*
X0053987Y0057200D03*
X0061467Y0057200D03*
X0061467Y0065200D03*
X0053987Y0065200D03*
X0083987Y0062200D03*
X0091467Y0062200D03*
X0087967Y0027200D03*
X0080487Y0027200D03*
X0080487Y0019200D03*
X0087967Y0019200D03*
X0063967Y0019200D03*
X0056487Y0019200D03*
X0056487Y0027200D03*
X0063967Y0027200D03*
D13*
X0048396Y0037460D03*
X0057058Y0041200D03*
X0048396Y0044940D03*
D14*
X0032727Y0042200D03*
X0032727Y0022200D03*
X0032727Y0062200D03*
X0112727Y0062200D03*
X0112727Y0042200D03*
X0112727Y0022200D03*
D15*
X0092963Y0034700D03*
X0092963Y0039700D03*
X0092963Y0044700D03*
X0092963Y0049700D03*
X0072491Y0049700D03*
X0072491Y0044700D03*
X0072491Y0039700D03*
X0072491Y0034700D03*
D16*
X0079022Y0034700D01*
X0079022Y0036171D01*
X0078872Y0036730D01*
X0078709Y0037012D01*
X0078856Y0037159D01*
X0079222Y0038041D01*
X0079222Y0041358D01*
X0078873Y0042200D01*
X0079222Y0043041D01*
X0079222Y0046358D01*
X0078873Y0047200D01*
X0079222Y0048041D01*
X0079222Y0051358D01*
X0078856Y0052241D01*
X0078181Y0052916D01*
X0077299Y0053281D01*
X0074454Y0053281D01*
X0074714Y0053541D01*
X0075080Y0054423D01*
X0075080Y0060496D01*
X0074714Y0061378D01*
X0074668Y0061425D01*
X0074730Y0061532D01*
X0074880Y0062091D01*
X0074880Y0064861D01*
X0069807Y0064861D01*
X0069807Y0065020D01*
X0074880Y0065020D01*
X0074880Y0067789D01*
X0074730Y0068348D01*
X0074440Y0068850D01*
X0074031Y0069260D01*
X0073529Y0069549D01*
X0072969Y0069699D01*
X0069807Y0069699D01*
X0069807Y0065020D01*
X0069647Y0065020D01*
X0069647Y0069699D01*
X0066485Y0069699D01*
X0066003Y0069570D01*
X0065386Y0070187D01*
X0064504Y0070553D01*
X0058431Y0070553D01*
X0057727Y0070261D01*
X0057023Y0070553D01*
X0050950Y0070553D01*
X0050068Y0070187D01*
X0049598Y0069717D01*
X0049157Y0069899D01*
X0042297Y0069899D01*
X0041415Y0069534D01*
X0040740Y0068859D01*
X0040374Y0067977D01*
X0040374Y0061904D01*
X0040558Y0061460D01*
X0040127Y0061460D01*
X0040127Y0065265D01*
X0035792Y0069600D01*
X0029662Y0069600D01*
X0025327Y0065265D01*
X0025327Y0059135D01*
X0029662Y0054800D01*
X0034470Y0054800D01*
X0035201Y0054069D01*
X0036672Y0053460D01*
X0040821Y0053460D01*
X0041415Y0052866D01*
X0042297Y0052501D01*
X0049157Y0052501D01*
X0049598Y0052683D01*
X0050068Y0052213D01*
X0050950Y0051847D01*
X0051518Y0051847D01*
X0051440Y0051769D01*
X0051440Y0049109D01*
X0048396Y0049109D01*
X0045351Y0049109D01*
X0044791Y0048959D01*
X0044290Y0048669D01*
X0043880Y0048259D01*
X0043590Y0047758D01*
X0043440Y0047198D01*
X0043440Y0044940D01*
X0043440Y0042682D01*
X0043590Y0042122D01*
X0043880Y0041621D01*
X0044159Y0041341D01*
X0043606Y0040788D01*
X0043240Y0039906D01*
X0043240Y0035014D01*
X0043606Y0034132D01*
X0044281Y0033457D01*
X0045163Y0033091D01*
X0047674Y0033091D01*
X0048866Y0031899D01*
X0044797Y0031899D01*
X0043915Y0031534D01*
X0043321Y0030940D01*
X0036672Y0030940D01*
X0035201Y0030331D01*
X0034470Y0029600D01*
X0029662Y0029600D01*
X0025327Y0025265D01*
X0025327Y0019135D01*
X0029662Y0014800D01*
X0035792Y0014800D01*
X0040127Y0019135D01*
X0040127Y0022940D01*
X0043058Y0022940D01*
X0042874Y0022496D01*
X0042874Y0016423D01*
X0043240Y0015541D01*
X0043915Y0014866D01*
X0044797Y0014501D01*
X0051657Y0014501D01*
X0052098Y0014683D01*
X0052568Y0014213D01*
X0053450Y0013847D01*
X0059523Y0013847D01*
X0060227Y0014139D01*
X0060931Y0013847D01*
X0067004Y0013847D01*
X0067886Y0014213D01*
X0068503Y0014830D01*
X0068985Y0014701D01*
X0072147Y0014701D01*
X0072147Y0019380D01*
X0072307Y0019380D01*
X0072307Y0014701D01*
X0075469Y0014701D01*
X0075951Y0014830D01*
X0076568Y0014213D01*
X0077450Y0013847D01*
X0083523Y0013847D01*
X0084227Y0014139D01*
X0084931Y0013847D01*
X0091004Y0013847D01*
X0091886Y0014213D01*
X0092356Y0014683D01*
X0092797Y0014501D01*
X0099657Y0014501D01*
X0100539Y0014866D01*
X0101214Y0015541D01*
X0101580Y0016423D01*
X0101580Y0022496D01*
X0101396Y0022940D01*
X0105327Y0022940D01*
X0105327Y0019135D01*
X0109662Y0014800D01*
X0115792Y0014800D01*
X0120127Y0019135D01*
X0120127Y0025265D01*
X0115792Y0029600D01*
X0110984Y0029600D01*
X0110253Y0030331D01*
X0108783Y0030940D01*
X0101133Y0030940D01*
X0100539Y0031534D01*
X0099657Y0031899D01*
X0099068Y0031899D01*
X0099329Y0032159D01*
X0099694Y0033041D01*
X0099694Y0036358D01*
X0099345Y0037200D01*
X0099694Y0038041D01*
X0099694Y0041358D01*
X0099345Y0042200D01*
X0099694Y0043041D01*
X0099694Y0046358D01*
X0099345Y0047200D01*
X0099694Y0048041D01*
X0099694Y0051358D01*
X0099329Y0052241D01*
X0098653Y0052916D01*
X0097771Y0053281D01*
X0092965Y0053281D01*
X0094858Y0055174D01*
X0095467Y0056645D01*
X0095467Y0057294D01*
X0096061Y0057888D01*
X0096190Y0058200D01*
X0106262Y0058200D01*
X0109662Y0054800D01*
X0115792Y0054800D01*
X0120127Y0059135D01*
X0120127Y0065265D01*
X0115792Y0069600D01*
X0109662Y0069600D01*
X0106262Y0066200D01*
X0096190Y0066200D01*
X0096061Y0066512D01*
X0095386Y0067187D01*
X0094504Y0067553D01*
X0088431Y0067553D01*
X0087549Y0067187D01*
X0087502Y0067141D01*
X0087395Y0067203D01*
X0086836Y0067353D01*
X0084066Y0067353D01*
X0084066Y0062280D01*
X0083907Y0062280D01*
X0083907Y0067353D01*
X0081138Y0067353D01*
X0080579Y0067203D01*
X0080077Y0066913D01*
X0079667Y0066504D01*
X0079378Y0066002D01*
X0079228Y0065442D01*
X0079228Y0062280D01*
X0083907Y0062280D01*
X0083907Y0062120D01*
X0084066Y0062120D01*
X0084066Y0057047D01*
X0085417Y0057047D01*
X0085336Y0056966D01*
X0085123Y0056453D01*
X0084940Y0056269D01*
X0084940Y0056009D01*
X0084936Y0056000D01*
X0083675Y0054739D01*
X0083127Y0053416D01*
X0083127Y0045484D01*
X0083675Y0044161D01*
X0084688Y0043148D01*
X0085636Y0042200D01*
X0083675Y0040239D01*
X0083127Y0038916D01*
X0083127Y0032553D01*
X0078804Y0032553D01*
X0078872Y0032670D01*
X0079022Y0033229D01*
X0079022Y0034700D01*
X0072491Y0034700D01*
X0072491Y0034700D01*
X0072491Y0039700D02*
X0067227Y0039700D01*
X0063967Y0036440D01*
X0063967Y0027200D01*
X0056487Y0027200D02*
X0055227Y0027200D01*
X0055227Y0034700D01*
X0051156Y0034700D01*
X0048396Y0037460D01*
X0043240Y0038178D02*
X0038887Y0038178D01*
X0039927Y0039218D02*
X0039927Y0042200D01*
X0039927Y0045182D01*
X0035709Y0049400D01*
X0032727Y0049400D01*
X0029745Y0049400D01*
X0025527Y0045182D01*
X0025527Y0042200D01*
X0032727Y0042200D01*
X0032727Y0042200D01*
X0025527Y0042200D01*
X0025527Y0039218D01*
X0029745Y0035000D01*
X0032727Y0035000D01*
X0032727Y0042200D01*
X0032727Y0049400D01*
X0032727Y0042200D01*
X0032727Y0042200D01*
X0032727Y0042200D01*
X0039927Y0042200D01*
X0032727Y0042200D01*
X0032727Y0042200D01*
X0032727Y0035000D01*
X0035709Y0035000D01*
X0039927Y0039218D01*
X0039927Y0040576D02*
X0043518Y0040576D01*
X0043440Y0042975D02*
X0039927Y0042975D01*
X0039736Y0045373D02*
X0043440Y0045373D01*
X0043440Y0044940D02*
X0048396Y0044940D01*
X0043440Y0044940D01*
X0043598Y0047772D02*
X0037338Y0047772D01*
X0032727Y0047772D02*
X0032727Y0047772D01*
X0032727Y0045373D02*
X0032727Y0045373D01*
X0032727Y0042975D02*
X0032727Y0042975D01*
X0032727Y0040576D02*
X0032727Y0040576D01*
X0032727Y0038178D02*
X0032727Y0038178D01*
X0032727Y0035779D02*
X0032727Y0035779D01*
X0028966Y0035779D02*
X0015127Y0035779D01*
X0015127Y0033381D02*
X0044465Y0033381D01*
X0043240Y0035779D02*
X0036489Y0035779D01*
X0043363Y0030982D02*
X0015127Y0030982D01*
X0015127Y0028584D02*
X0028645Y0028584D01*
X0026247Y0026185D02*
X0015127Y0026185D01*
X0015127Y0023787D02*
X0025327Y0023787D01*
X0025327Y0021388D02*
X0015127Y0021388D01*
X0015127Y0018990D02*
X0025472Y0018990D01*
X0027871Y0016591D02*
X0015127Y0016591D01*
X0015127Y0014193D02*
X0052617Y0014193D01*
X0042874Y0016591D02*
X0037583Y0016591D01*
X0039982Y0018990D02*
X0042874Y0018990D01*
X0042874Y0021388D02*
X0040127Y0021388D01*
X0026567Y0038178D02*
X0015127Y0038178D01*
X0015127Y0040576D02*
X0025527Y0040576D01*
X0025527Y0042975D02*
X0015127Y0042975D01*
X0015127Y0045373D02*
X0025718Y0045373D01*
X0028116Y0047772D02*
X0015127Y0047772D01*
X0015127Y0050170D02*
X0051440Y0050170D01*
X0055227Y0050200D02*
X0055227Y0057200D01*
X0053987Y0057200D01*
X0049712Y0052569D02*
X0049321Y0052569D01*
X0048396Y0049109D02*
X0048396Y0044940D01*
X0048396Y0044940D01*
X0048396Y0049109D01*
X0048396Y0047772D02*
X0048396Y0047772D01*
X0048396Y0045373D02*
X0048396Y0045373D01*
X0048396Y0044940D02*
X0048396Y0044940D01*
X0057058Y0044291D02*
X0057058Y0041200D01*
X0061227Y0041200D01*
X0064727Y0044700D01*
X0072491Y0044700D01*
X0079222Y0045373D02*
X0083173Y0045373D01*
X0084861Y0042975D02*
X0079194Y0042975D01*
X0079222Y0040576D02*
X0084012Y0040576D01*
X0083127Y0038178D02*
X0079222Y0038178D01*
X0079022Y0035779D02*
X0083127Y0035779D01*
X0083127Y0033381D02*
X0079022Y0033381D01*
X0086727Y0038200D02*
X0086727Y0027200D01*
X0087967Y0027200D01*
X0099694Y0033381D02*
X0128437Y0033381D01*
X0128437Y0035779D02*
X0116489Y0035779D01*
X0115709Y0035000D02*
X0119927Y0039218D01*
X0119927Y0042200D01*
X0119927Y0045182D01*
X0115709Y0049400D01*
X0112727Y0049400D01*
X0109745Y0049400D01*
X0105527Y0045182D01*
X0105527Y0042200D01*
X0112727Y0042200D01*
X0112727Y0042200D01*
X0105527Y0042200D01*
X0105527Y0039218D01*
X0109745Y0035000D01*
X0112727Y0035000D01*
X0112727Y0042200D01*
X0112727Y0049400D01*
X0112727Y0042200D01*
X0112727Y0042200D01*
X0112727Y0042200D01*
X0119927Y0042200D01*
X0112727Y0042200D01*
X0112727Y0042200D01*
X0112727Y0035000D01*
X0115709Y0035000D01*
X0112727Y0035779D02*
X0112727Y0035779D01*
X0112727Y0038178D02*
X0112727Y0038178D01*
X0112727Y0040576D02*
X0112727Y0040576D01*
X0112727Y0042975D02*
X0112727Y0042975D01*
X0112727Y0045373D02*
X0112727Y0045373D01*
X0112727Y0047772D02*
X0112727Y0047772D01*
X0108116Y0047772D02*
X0099582Y0047772D01*
X0099694Y0050170D02*
X0128437Y0050170D01*
X0128437Y0047772D02*
X0117338Y0047772D01*
X0119736Y0045373D02*
X0128437Y0045373D01*
X0128437Y0042975D02*
X0119927Y0042975D01*
X0119927Y0040576D02*
X0128437Y0040576D01*
X0128437Y0038178D02*
X0118887Y0038178D01*
X0108966Y0035779D02*
X0099694Y0035779D01*
X0099694Y0038178D02*
X0106567Y0038178D01*
X0105527Y0040576D02*
X0099694Y0040576D01*
X0099666Y0042975D02*
X0105527Y0042975D01*
X0105718Y0045373D02*
X0099694Y0045373D01*
X0092963Y0044700D02*
X0088227Y0044700D01*
X0086727Y0046200D01*
X0086727Y0052700D01*
X0088727Y0054700D01*
X0083903Y0054967D02*
X0075080Y0054967D01*
X0075080Y0057366D02*
X0080287Y0057366D01*
X0080077Y0057487D02*
X0080579Y0057197D01*
X0081138Y0057047D01*
X0083907Y0057047D01*
X0083907Y0062120D01*
X0079228Y0062120D01*
X0079228Y0058958D01*
X0079378Y0058398D01*
X0079667Y0057896D01*
X0080077Y0057487D01*
X0079228Y0059764D02*
X0075080Y0059764D01*
X0074880Y0062163D02*
X0083907Y0062163D01*
X0083907Y0064561D02*
X0084066Y0064561D01*
X0084066Y0066960D02*
X0083907Y0066960D01*
X0080158Y0066960D02*
X0074880Y0066960D01*
X0074880Y0064561D02*
X0079228Y0064561D01*
X0073860Y0069358D02*
X0109420Y0069358D01*
X0107022Y0066960D02*
X0095613Y0066960D01*
X0084066Y0059764D02*
X0083907Y0059764D01*
X0083907Y0057366D02*
X0084066Y0057366D01*
X0083127Y0052569D02*
X0078528Y0052569D01*
X0079222Y0050170D02*
X0083127Y0050170D01*
X0083127Y0047772D02*
X0079110Y0047772D01*
X0088227Y0039700D02*
X0086727Y0038200D01*
X0088227Y0039700D02*
X0092963Y0039700D01*
X0101091Y0030982D02*
X0128437Y0030982D01*
X0128437Y0028584D02*
X0116809Y0028584D01*
X0119207Y0026185D02*
X0128437Y0026185D01*
X0128437Y0023787D02*
X0120127Y0023787D01*
X0120127Y0021388D02*
X0128437Y0021388D01*
X0128437Y0018990D02*
X0119982Y0018990D01*
X0117583Y0016591D02*
X0128437Y0016591D01*
X0128437Y0014193D02*
X0091837Y0014193D01*
X0101580Y0016591D02*
X0107871Y0016591D01*
X0105472Y0018990D02*
X0101580Y0018990D01*
X0101580Y0021388D02*
X0105327Y0021388D01*
X0128437Y0011794D02*
X0015127Y0011794D01*
X0015127Y0009396D02*
X0128437Y0009396D01*
X0128437Y0006997D02*
X0015127Y0006997D01*
X0015127Y0004600D02*
X0015127Y0078540D01*
X0128437Y0078540D01*
X0128437Y0004600D01*
X0015127Y0004600D01*
X0067837Y0014193D02*
X0076617Y0014193D01*
X0072307Y0016591D02*
X0072147Y0016591D01*
X0072147Y0018990D02*
X0072307Y0018990D01*
X0057058Y0044291D02*
X0061467Y0048700D01*
X0061467Y0057200D01*
X0069647Y0066960D02*
X0069807Y0066960D01*
X0069807Y0069358D02*
X0069647Y0069358D01*
X0095539Y0057366D02*
X0107096Y0057366D01*
X0109495Y0054967D02*
X0094651Y0054967D01*
X0099000Y0052569D02*
X0128437Y0052569D01*
X0128437Y0054967D02*
X0115959Y0054967D01*
X0118358Y0057366D02*
X0128437Y0057366D01*
X0128437Y0059764D02*
X0120127Y0059764D01*
X0120127Y0062163D02*
X0128437Y0062163D01*
X0128437Y0064561D02*
X0120127Y0064561D01*
X0118432Y0066960D02*
X0128437Y0066960D01*
X0128437Y0069358D02*
X0116034Y0069358D01*
X0128437Y0071757D02*
X0015127Y0071757D01*
X0015127Y0069358D02*
X0029420Y0069358D01*
X0027022Y0066960D02*
X0015127Y0066960D01*
X0015127Y0064561D02*
X0025327Y0064561D01*
X0025327Y0062163D02*
X0015127Y0062163D01*
X0015127Y0059764D02*
X0025327Y0059764D01*
X0027096Y0057366D02*
X0015127Y0057366D01*
X0015127Y0054967D02*
X0029495Y0054967D01*
X0040127Y0062163D02*
X0040374Y0062163D01*
X0040374Y0064561D02*
X0040127Y0064561D01*
X0040374Y0066960D02*
X0038432Y0066960D01*
X0036034Y0069358D02*
X0041239Y0069358D01*
X0042133Y0052569D02*
X0015127Y0052569D01*
X0015127Y0074155D02*
X0128437Y0074155D01*
X0128437Y0076554D02*
X0015127Y0076554D01*
D17*
X0020227Y0074700D03*
X0035227Y0074700D03*
X0050227Y0074700D03*
X0065227Y0074700D03*
X0076727Y0065200D03*
X0076727Y0059700D03*
X0088727Y0054700D03*
X0080727Y0049700D03*
X0080727Y0042200D03*
X0080727Y0034700D03*
X0055227Y0034700D03*
X0041227Y0034700D03*
X0041227Y0049700D03*
X0055227Y0050200D03*
X0080227Y0074700D03*
X0095227Y0074700D03*
X0110227Y0074700D03*
X0125227Y0074700D03*
X0125227Y0009700D03*
X0110227Y0009700D03*
X0095227Y0009700D03*
X0080227Y0009700D03*
X0065227Y0009700D03*
X0050227Y0009700D03*
X0035227Y0009700D03*
X0020227Y0009700D03*
D18*
X0032727Y0022200D02*
X0037467Y0026940D01*
X0048227Y0026940D01*
X0048227Y0019460D02*
X0056487Y0019460D01*
X0056487Y0019200D01*
X0063967Y0019200D02*
X0063967Y0027200D01*
X0072227Y0027200D01*
X0072227Y0026940D01*
X0072227Y0027200D02*
X0080487Y0027200D01*
X0080487Y0019200D01*
X0087967Y0019200D02*
X0087967Y0027200D01*
X0096227Y0026940D02*
X0107987Y0026940D01*
X0112727Y0022200D01*
X0096227Y0019460D02*
X0096227Y0019200D01*
X0087967Y0019200D01*
X0088727Y0054700D02*
X0091467Y0057440D01*
X0091467Y0062200D01*
X0112727Y0062200D01*
X0069727Y0057460D02*
X0069727Y0057200D01*
X0061467Y0057200D01*
X0061467Y0065200D01*
X0053987Y0065200D02*
X0053987Y0064940D01*
X0045727Y0064940D01*
X0045727Y0057460D02*
X0037467Y0057460D01*
X0032727Y0062200D01*
M02*
