G75*
%MOIN*%
%OFA0B0*%
%FSLAX25Y25*%
%IPPOS*%
%LPD*%
%AMOC8*
5,1,8,0,0,1.08239X$1,22.5*
%
%ADD10C,0.00000*%
%ADD11C,0.00500*%
%ADD12C,0.00600*%
%ADD13C,0.00400*%
%ADD14C,0.00800*%
D10*
X0012727Y0002200D02*
X0012727Y0080940D01*
X0130837Y0080940D01*
X0130837Y0002200D01*
X0012727Y0002200D01*
D11*
X0020473Y0016311D02*
X0020473Y0017813D01*
X0020473Y0017062D02*
X0024977Y0017062D01*
X0024977Y0016311D02*
X0024977Y0017813D01*
X0024977Y0019381D02*
X0020473Y0019381D01*
X0024977Y0022383D01*
X0020473Y0022383D01*
X0020473Y0023985D02*
X0020473Y0026987D01*
X0020473Y0025486D02*
X0024977Y0025486D01*
X0024226Y0035544D02*
X0021224Y0035544D01*
X0020473Y0036295D01*
X0020473Y0037796D01*
X0021224Y0038547D01*
X0022725Y0038547D02*
X0022725Y0037045D01*
X0022725Y0038547D02*
X0024226Y0038547D01*
X0024977Y0037796D01*
X0024977Y0036295D01*
X0024226Y0035544D01*
X0024977Y0040148D02*
X0020473Y0040148D01*
X0024977Y0043151D01*
X0020473Y0043151D01*
X0020473Y0044752D02*
X0020473Y0047004D01*
X0021224Y0047755D01*
X0024226Y0047755D01*
X0024977Y0047004D01*
X0024977Y0044752D01*
X0020473Y0044752D01*
X0020473Y0055544D02*
X0024977Y0055544D01*
X0024977Y0058547D01*
X0024977Y0060148D02*
X0020473Y0063151D01*
X0020473Y0064752D02*
X0020473Y0067755D01*
X0020473Y0066253D02*
X0024977Y0066253D01*
X0024977Y0063151D02*
X0020473Y0060148D01*
X0020473Y0058547D02*
X0020473Y0055544D01*
X0022725Y0055544D02*
X0022725Y0057045D01*
X0120473Y0056245D02*
X0120473Y0053242D01*
X0122725Y0053242D01*
X0121974Y0054743D01*
X0121974Y0055494D01*
X0122725Y0056245D01*
X0124226Y0056245D01*
X0124977Y0055494D01*
X0124977Y0053993D01*
X0124226Y0053242D01*
X0123476Y0057846D02*
X0120473Y0057846D01*
X0123476Y0057846D02*
X0124977Y0059347D01*
X0123476Y0060849D01*
X0120473Y0060849D01*
X0120473Y0062450D02*
X0120473Y0064702D01*
X0121224Y0065453D01*
X0124226Y0065453D01*
X0124977Y0064702D01*
X0124977Y0062450D01*
X0120473Y0062450D01*
X0121224Y0067054D02*
X0124226Y0067054D01*
X0124977Y0067805D01*
X0124977Y0069306D01*
X0124226Y0070056D01*
X0121224Y0070056D02*
X0120473Y0069306D01*
X0120473Y0067805D01*
X0121224Y0067054D01*
X0121224Y0047755D02*
X0120473Y0047004D01*
X0120473Y0044752D01*
X0124977Y0044752D01*
X0124977Y0047004D01*
X0124226Y0047755D01*
X0121224Y0047755D01*
X0120473Y0043151D02*
X0124977Y0043151D01*
X0120473Y0040148D01*
X0124977Y0040148D01*
X0124226Y0038547D02*
X0122725Y0038547D01*
X0122725Y0037045D01*
X0121224Y0035544D02*
X0120473Y0036295D01*
X0120473Y0037796D01*
X0121224Y0038547D01*
X0124226Y0038547D02*
X0124977Y0037796D01*
X0124977Y0036295D01*
X0124226Y0035544D01*
X0121224Y0035544D01*
X0120473Y0027755D02*
X0120473Y0024752D01*
X0120473Y0026253D02*
X0124977Y0026253D01*
X0124226Y0023151D02*
X0120473Y0023151D01*
X0120473Y0020148D02*
X0124226Y0020148D01*
X0124977Y0020899D01*
X0124977Y0022400D01*
X0124226Y0023151D01*
X0124226Y0018547D02*
X0121224Y0018547D01*
X0120473Y0017796D01*
X0120473Y0016295D01*
X0121224Y0015544D01*
X0124226Y0015544D01*
X0124977Y0016295D01*
X0124977Y0017796D01*
X0124226Y0018547D01*
D12*
X0117727Y0019200D02*
X0117727Y0017200D01*
X0115727Y0017200D01*
X0109727Y0017200D02*
X0107727Y0017200D01*
X0107727Y0019200D01*
X0107727Y0025200D02*
X0107727Y0027200D01*
X0109727Y0027200D01*
X0115727Y0027200D02*
X0117727Y0027200D01*
X0117727Y0025200D01*
X0117727Y0037200D02*
X0115727Y0037200D01*
X0117727Y0037200D02*
X0117727Y0039200D01*
X0117727Y0045200D02*
X0117727Y0047200D01*
X0115727Y0047200D01*
X0109727Y0047200D02*
X0107727Y0047200D01*
X0107727Y0045200D01*
X0107727Y0039200D02*
X0107727Y0037200D01*
X0109727Y0037200D01*
X0099727Y0030200D02*
X0092727Y0030200D01*
X0092727Y0016200D01*
X0099727Y0016200D01*
X0099727Y0030200D01*
X0091227Y0030700D02*
X0077227Y0030700D01*
X0077227Y0023700D01*
X0091227Y0023700D01*
X0091227Y0030700D01*
X0091227Y0022700D02*
X0091227Y0015700D01*
X0077227Y0015700D01*
X0077227Y0022700D01*
X0091227Y0022700D01*
X0075727Y0016200D02*
X0075727Y0030200D01*
X0068727Y0030200D01*
X0068727Y0016200D01*
X0075727Y0016200D01*
X0067227Y0015700D02*
X0067227Y0022700D01*
X0053227Y0022700D01*
X0053227Y0015700D01*
X0067227Y0015700D01*
X0067227Y0023700D02*
X0067227Y0030700D01*
X0053227Y0030700D01*
X0053227Y0023700D01*
X0067227Y0023700D01*
X0051727Y0030200D02*
X0051727Y0016200D01*
X0044727Y0016200D01*
X0044727Y0030200D01*
X0051727Y0030200D01*
X0051743Y0035602D02*
X0055325Y0035602D01*
X0055325Y0038641D01*
X0050129Y0040019D02*
X0050129Y0042381D01*
X0055325Y0043759D02*
X0055325Y0046798D01*
X0051743Y0046798D01*
X0050727Y0053700D02*
X0064727Y0053700D01*
X0064727Y0060700D01*
X0050727Y0060700D01*
X0050727Y0053700D01*
X0049227Y0054200D02*
X0049227Y0068200D01*
X0042227Y0068200D01*
X0042227Y0054200D01*
X0049227Y0054200D01*
X0050727Y0061700D02*
X0064727Y0061700D01*
X0064727Y0068700D01*
X0050727Y0068700D01*
X0050727Y0061700D01*
X0037727Y0059200D02*
X0037727Y0057200D01*
X0035727Y0057200D01*
X0029727Y0057200D02*
X0027727Y0057200D01*
X0027727Y0059200D01*
X0027727Y0065200D02*
X0027727Y0067200D01*
X0029727Y0067200D01*
X0035727Y0067200D02*
X0037727Y0067200D01*
X0037727Y0065200D01*
X0037727Y0047200D02*
X0035727Y0047200D01*
X0037727Y0047200D02*
X0037727Y0045200D01*
X0029727Y0047200D02*
X0027727Y0047200D01*
X0027727Y0045200D01*
X0027727Y0039200D02*
X0027727Y0037200D01*
X0029727Y0037200D01*
X0035727Y0037200D02*
X0037727Y0037200D01*
X0037727Y0039200D01*
X0037727Y0027200D02*
X0035727Y0027200D01*
X0037727Y0027200D02*
X0037727Y0025200D01*
X0029727Y0027200D02*
X0027727Y0027200D01*
X0027727Y0025200D01*
X0027727Y0019200D02*
X0027727Y0017200D01*
X0029727Y0017200D01*
X0035727Y0017200D02*
X0037727Y0017200D01*
X0037727Y0019200D01*
X0066227Y0054200D02*
X0073227Y0054200D01*
X0073227Y0068200D01*
X0066227Y0068200D01*
X0066227Y0054200D01*
X0080727Y0058700D02*
X0080727Y0065700D01*
X0094727Y0065700D01*
X0094727Y0058700D01*
X0080727Y0058700D01*
X0107727Y0059200D02*
X0107727Y0057200D01*
X0109727Y0057200D01*
X0115727Y0057200D02*
X0117727Y0057200D01*
X0117727Y0059200D01*
X0117727Y0065200D02*
X0117727Y0067200D01*
X0115727Y0067200D01*
X0109727Y0067200D02*
X0107727Y0067200D01*
X0107727Y0065200D01*
D13*
X0089512Y0067501D02*
X0088912Y0066900D01*
X0087711Y0066900D01*
X0087110Y0067501D01*
X0085829Y0067501D02*
X0085229Y0066900D01*
X0084028Y0066900D01*
X0083427Y0067501D01*
X0083427Y0069903D01*
X0084028Y0070503D01*
X0085229Y0070503D01*
X0085829Y0069903D01*
X0087110Y0069903D02*
X0087711Y0070503D01*
X0088912Y0070503D01*
X0089512Y0069903D01*
X0089512Y0069302D01*
X0088912Y0068702D01*
X0089512Y0068101D01*
X0089512Y0067501D01*
X0088912Y0068702D02*
X0088311Y0068702D01*
X0073512Y0069900D02*
X0071110Y0069900D01*
X0073512Y0072302D01*
X0073512Y0072903D01*
X0072912Y0073503D01*
X0071711Y0073503D01*
X0071110Y0072903D01*
X0069829Y0072903D02*
X0069829Y0071702D01*
X0069229Y0071101D01*
X0067427Y0071101D01*
X0067427Y0069900D02*
X0067427Y0073503D01*
X0069229Y0073503D01*
X0069829Y0072903D01*
X0068628Y0071101D02*
X0069829Y0069900D01*
X0059512Y0069900D02*
X0057110Y0069900D01*
X0058311Y0069900D02*
X0058311Y0073503D01*
X0057110Y0072302D01*
X0055829Y0071702D02*
X0055229Y0071101D01*
X0053427Y0071101D01*
X0053427Y0069900D02*
X0053427Y0073503D01*
X0055229Y0073503D01*
X0055829Y0072903D01*
X0055829Y0071702D01*
X0054628Y0071101D02*
X0055829Y0069900D01*
X0055829Y0074900D02*
X0054628Y0076101D01*
X0055229Y0076101D02*
X0053427Y0076101D01*
X0055229Y0076101D02*
X0055829Y0076702D01*
X0055829Y0077903D01*
X0055229Y0078503D01*
X0053427Y0078503D01*
X0053427Y0074900D01*
X0057110Y0075501D02*
X0057711Y0074900D01*
X0058912Y0074900D01*
X0059512Y0075501D01*
X0059512Y0076101D01*
X0058912Y0076702D01*
X0057110Y0076702D01*
X0057110Y0075501D01*
X0057110Y0076702D02*
X0058311Y0077903D01*
X0059512Y0078503D01*
X0048012Y0069900D02*
X0045610Y0069900D01*
X0046811Y0069900D02*
X0046811Y0073503D01*
X0045610Y0072302D01*
X0044329Y0072903D02*
X0043729Y0073503D01*
X0042528Y0073503D01*
X0041927Y0072903D01*
X0041927Y0070501D01*
X0042528Y0069900D01*
X0043729Y0069900D01*
X0044329Y0070501D01*
X0044927Y0052503D02*
X0046729Y0052503D01*
X0047329Y0051903D01*
X0047329Y0049501D01*
X0046729Y0048900D01*
X0044927Y0048900D01*
X0044927Y0052503D01*
X0048610Y0051302D02*
X0049811Y0052503D01*
X0049811Y0048900D01*
X0048610Y0048900D02*
X0051012Y0048900D01*
X0077927Y0053501D02*
X0078528Y0052900D01*
X0079729Y0052900D01*
X0080329Y0053501D01*
X0080329Y0056503D01*
X0081610Y0055302D02*
X0082811Y0056503D01*
X0082811Y0052900D01*
X0081610Y0052900D02*
X0084012Y0052900D01*
X0077927Y0053501D02*
X0077927Y0056503D01*
X0074545Y0014503D02*
X0072744Y0012702D01*
X0075146Y0012702D01*
X0074545Y0014503D02*
X0074545Y0010900D01*
X0071463Y0010900D02*
X0070262Y0012101D01*
X0070862Y0012101D02*
X0069061Y0012101D01*
X0069061Y0010900D02*
X0069061Y0014503D01*
X0070862Y0014503D01*
X0071463Y0013903D01*
X0071463Y0012702D01*
X0070862Y0012101D01*
X0063646Y0012101D02*
X0063646Y0011501D01*
X0063045Y0010900D01*
X0061844Y0010900D01*
X0061244Y0011501D01*
X0059963Y0010900D02*
X0058762Y0012101D01*
X0059362Y0012101D02*
X0057561Y0012101D01*
X0057561Y0010900D02*
X0057561Y0014503D01*
X0059362Y0014503D01*
X0059963Y0013903D01*
X0059963Y0012702D01*
X0059362Y0012101D01*
X0059362Y0009503D02*
X0057561Y0009503D01*
X0057561Y0005900D01*
X0057561Y0007101D02*
X0059362Y0007101D01*
X0059963Y0007702D01*
X0059963Y0008903D01*
X0059362Y0009503D01*
X0061244Y0009503D02*
X0063646Y0009503D01*
X0063646Y0008903D01*
X0061244Y0006501D01*
X0061244Y0005900D01*
X0059963Y0005900D02*
X0058762Y0007101D01*
X0063646Y0012101D02*
X0063045Y0012702D01*
X0062445Y0012702D01*
X0063045Y0012702D02*
X0063646Y0013302D01*
X0063646Y0013903D01*
X0063045Y0014503D01*
X0061844Y0014503D01*
X0061244Y0013903D01*
X0051146Y0013903D02*
X0050545Y0014503D01*
X0049344Y0014503D01*
X0048744Y0013903D01*
X0047463Y0013903D02*
X0046862Y0014503D01*
X0045661Y0014503D01*
X0045061Y0013903D01*
X0045061Y0011501D01*
X0045661Y0010900D01*
X0046862Y0010900D01*
X0047463Y0011501D01*
X0048744Y0010900D02*
X0051146Y0013302D01*
X0051146Y0013903D01*
X0051146Y0010900D02*
X0048744Y0010900D01*
X0081561Y0010900D02*
X0081561Y0014503D01*
X0083362Y0014503D01*
X0083963Y0013903D01*
X0083963Y0012702D01*
X0083362Y0012101D01*
X0081561Y0012101D01*
X0082762Y0012101D02*
X0083963Y0010900D01*
X0085244Y0011501D02*
X0085844Y0010900D01*
X0087045Y0010900D01*
X0087646Y0011501D01*
X0087646Y0012702D01*
X0087045Y0013302D01*
X0086445Y0013302D01*
X0085244Y0012702D01*
X0085244Y0014503D01*
X0087646Y0014503D01*
X0093061Y0014503D02*
X0093061Y0010900D01*
X0093061Y0012101D02*
X0094862Y0012101D01*
X0095463Y0012702D01*
X0095463Y0013903D01*
X0094862Y0014503D01*
X0093061Y0014503D01*
X0094262Y0012101D02*
X0095463Y0010900D01*
X0096744Y0011501D02*
X0096744Y0012101D01*
X0097344Y0012702D01*
X0098545Y0012702D01*
X0099146Y0012101D01*
X0099146Y0011501D01*
X0098545Y0010900D01*
X0097344Y0010900D01*
X0096744Y0011501D01*
X0097344Y0012702D02*
X0096744Y0013302D01*
X0096744Y0013903D01*
X0097344Y0014503D01*
X0098545Y0014503D01*
X0099146Y0013903D01*
X0099146Y0013302D01*
X0098545Y0012702D01*
X0087045Y0009503D02*
X0087045Y0005900D01*
X0087646Y0007702D02*
X0085244Y0007702D01*
X0087045Y0009503D01*
X0083963Y0008903D02*
X0083362Y0009503D01*
X0082161Y0009503D01*
X0081561Y0008903D01*
X0081561Y0006501D01*
X0082161Y0005900D01*
X0083362Y0005900D01*
X0083963Y0006501D01*
D14*
X0087727Y0032751D02*
X0077727Y0032751D01*
X0077727Y0051649D01*
X0081227Y0051649D01*
X0081229Y0051573D01*
X0081235Y0051497D01*
X0081244Y0051422D01*
X0081258Y0051347D01*
X0081275Y0051273D01*
X0081296Y0051200D01*
X0081320Y0051128D01*
X0081349Y0051057D01*
X0081380Y0050988D01*
X0081415Y0050921D01*
X0081454Y0050856D01*
X0081496Y0050792D01*
X0081541Y0050731D01*
X0081589Y0050672D01*
X0081640Y0050616D01*
X0081694Y0050562D01*
X0081750Y0050511D01*
X0081809Y0050463D01*
X0081870Y0050418D01*
X0081934Y0050376D01*
X0081999Y0050337D01*
X0082066Y0050302D01*
X0082135Y0050271D01*
X0082206Y0050242D01*
X0082278Y0050218D01*
X0082351Y0050197D01*
X0082425Y0050180D01*
X0082500Y0050166D01*
X0082575Y0050157D01*
X0082651Y0050151D01*
X0082727Y0050149D01*
X0082803Y0050151D01*
X0082879Y0050157D01*
X0082954Y0050166D01*
X0083029Y0050180D01*
X0083103Y0050197D01*
X0083176Y0050218D01*
X0083248Y0050242D01*
X0083319Y0050271D01*
X0083388Y0050302D01*
X0083455Y0050337D01*
X0083520Y0050376D01*
X0083584Y0050418D01*
X0083645Y0050463D01*
X0083704Y0050511D01*
X0083760Y0050562D01*
X0083814Y0050616D01*
X0083865Y0050672D01*
X0083913Y0050731D01*
X0083958Y0050792D01*
X0084000Y0050856D01*
X0084039Y0050921D01*
X0084074Y0050988D01*
X0084105Y0051057D01*
X0084134Y0051128D01*
X0084158Y0051200D01*
X0084179Y0051273D01*
X0084196Y0051347D01*
X0084210Y0051422D01*
X0084219Y0051497D01*
X0084225Y0051573D01*
X0084227Y0051649D01*
X0087727Y0051649D01*
X0087727Y0032751D01*
M02*
