G75*
%MOIN*%
%OFA0B0*%
%FSLAX25Y25*%
%IPPOS*%
%LPD*%
%AMOC8*
5,1,8,0,0,1.08239X$1,22.5*
%
%ADD10C,0.00500*%
D10*
X0037718Y0010701D02*
X0038468Y0009950D01*
X0039969Y0009950D01*
X0040720Y0010701D01*
X0037718Y0013703D01*
X0037718Y0010701D01*
X0040720Y0010701D02*
X0040720Y0013703D01*
X0039969Y0014454D01*
X0038468Y0014454D01*
X0037718Y0013703D01*
X0042321Y0012202D02*
X0045324Y0012202D01*
X0043072Y0014454D01*
X0043072Y0009950D01*
X0046875Y0009950D02*
X0047626Y0009950D01*
X0047626Y0010701D01*
X0046875Y0010701D01*
X0046875Y0009950D01*
X0046875Y0012202D02*
X0047626Y0012202D01*
X0047626Y0012953D01*
X0046875Y0012953D01*
X0046875Y0012202D01*
X0049227Y0012953D02*
X0049227Y0013703D01*
X0049978Y0014454D01*
X0051479Y0014454D01*
X0052230Y0013703D01*
X0050729Y0012202D02*
X0049978Y0012202D01*
X0049227Y0011451D01*
X0049227Y0010701D01*
X0049978Y0009950D01*
X0051479Y0009950D01*
X0052230Y0010701D01*
X0053831Y0009950D02*
X0056834Y0009950D01*
X0055333Y0009950D02*
X0055333Y0014454D01*
X0056834Y0012953D01*
X0063039Y0012202D02*
X0063039Y0010701D01*
X0063790Y0009950D01*
X0065291Y0009950D01*
X0066042Y0010701D01*
X0066042Y0012202D02*
X0064540Y0012953D01*
X0063790Y0012953D01*
X0063039Y0012202D01*
X0066042Y0012202D02*
X0066042Y0014454D01*
X0063039Y0014454D01*
X0067643Y0013703D02*
X0067643Y0012953D01*
X0070646Y0009950D01*
X0067643Y0009950D01*
X0072247Y0010701D02*
X0072998Y0009950D01*
X0074499Y0009950D01*
X0075250Y0010701D01*
X0072247Y0013703D01*
X0072247Y0010701D01*
X0075250Y0010701D02*
X0075250Y0013703D01*
X0074499Y0014454D01*
X0072998Y0014454D01*
X0072247Y0013703D01*
X0070646Y0013703D02*
X0069895Y0014454D01*
X0068394Y0014454D01*
X0067643Y0013703D01*
X0076851Y0013703D02*
X0076851Y0012953D01*
X0079853Y0009950D01*
X0076851Y0009950D01*
X0076851Y0013703D02*
X0077602Y0014454D01*
X0079103Y0014454D01*
X0079853Y0013703D01*
X0081455Y0014454D02*
X0084457Y0009950D01*
X0086059Y0010701D02*
X0086809Y0009950D01*
X0088311Y0009950D01*
X0089061Y0010701D01*
X0089061Y0012202D02*
X0087560Y0012953D01*
X0086809Y0012953D01*
X0086059Y0012202D01*
X0086059Y0010701D01*
X0089061Y0012202D02*
X0089061Y0014454D01*
X0086059Y0014454D01*
X0090663Y0013703D02*
X0090663Y0010701D01*
X0091413Y0009950D01*
X0092915Y0009950D01*
X0093665Y0010701D01*
X0090663Y0013703D01*
X0091413Y0014454D01*
X0092915Y0014454D01*
X0093665Y0013703D01*
X0093665Y0010701D01*
X0095267Y0014454D02*
X0098269Y0009950D01*
X0099871Y0010701D02*
X0099871Y0011451D01*
X0100621Y0012202D01*
X0102873Y0012202D01*
X0102873Y0010701D01*
X0102122Y0009950D01*
X0100621Y0009950D01*
X0099871Y0010701D01*
X0101372Y0013703D02*
X0102873Y0012202D01*
X0101372Y0013703D02*
X0099871Y0014454D01*
X0105976Y0014454D02*
X0105976Y0009950D01*
X0107477Y0009950D02*
X0104474Y0009950D01*
X0107477Y0012953D02*
X0105976Y0014454D01*
X0077477Y0042450D02*
X0077477Y0046954D01*
X0075225Y0046954D01*
X0074474Y0046203D01*
X0074474Y0044702D01*
X0075225Y0043951D01*
X0077477Y0043951D01*
X0075976Y0043951D02*
X0074474Y0042450D01*
X0072873Y0042450D02*
X0069871Y0042450D01*
X0068269Y0043951D02*
X0066768Y0042450D01*
X0065267Y0043951D01*
X0065267Y0046954D01*
X0068269Y0046954D02*
X0068269Y0043951D01*
X0071372Y0044702D02*
X0072873Y0044702D01*
X0072873Y0046954D02*
X0072873Y0042450D01*
X0072873Y0046954D02*
X0069871Y0046954D01*
X0069457Y0054950D02*
X0066455Y0054950D01*
X0064853Y0054950D02*
X0061851Y0054950D01*
X0060250Y0054950D02*
X0060250Y0057953D01*
X0058748Y0059454D01*
X0057247Y0057953D01*
X0057247Y0054950D01*
X0055646Y0054950D02*
X0055646Y0059454D01*
X0052643Y0054950D01*
X0052643Y0059454D01*
X0051042Y0059454D02*
X0048790Y0059454D01*
X0048039Y0058703D01*
X0048039Y0055701D01*
X0048790Y0054950D01*
X0051042Y0054950D01*
X0051042Y0059454D01*
X0057247Y0057202D02*
X0060250Y0057202D01*
X0064853Y0059454D02*
X0064853Y0054950D01*
X0069457Y0054950D02*
X0069457Y0059454D01*
X0071059Y0058703D02*
X0071809Y0059454D01*
X0073311Y0059454D01*
X0074061Y0058703D01*
X0074061Y0055701D01*
X0073311Y0054950D01*
X0071809Y0054950D01*
X0071059Y0055701D01*
X0071059Y0058703D01*
X0071059Y0062450D02*
X0074061Y0062450D01*
X0074061Y0066954D01*
X0071059Y0066954D01*
X0069457Y0066954D02*
X0066455Y0066954D01*
X0067956Y0066954D02*
X0067956Y0062450D01*
X0064853Y0062450D02*
X0061851Y0062450D01*
X0060250Y0062450D02*
X0060250Y0066954D01*
X0057998Y0066954D01*
X0057247Y0066203D01*
X0057247Y0064702D01*
X0057998Y0063951D01*
X0060250Y0063951D01*
X0058748Y0063951D02*
X0057247Y0062450D01*
X0063352Y0064702D02*
X0064853Y0064702D01*
X0064853Y0066954D02*
X0064853Y0062450D01*
X0064853Y0066954D02*
X0061851Y0066954D01*
X0064227Y0069950D02*
X0067230Y0069950D01*
X0067230Y0074454D01*
X0064227Y0074454D01*
X0065729Y0072202D02*
X0067230Y0072202D01*
X0068831Y0072202D02*
X0069582Y0071451D01*
X0071834Y0071451D01*
X0073435Y0072202D02*
X0076438Y0072202D01*
X0076438Y0072953D02*
X0074937Y0074454D01*
X0073435Y0072953D01*
X0073435Y0069950D01*
X0071834Y0069950D02*
X0071834Y0074454D01*
X0069582Y0074454D01*
X0068831Y0073703D01*
X0068831Y0072202D01*
X0076438Y0072953D02*
X0076438Y0069950D01*
X0079540Y0069950D02*
X0079540Y0074454D01*
X0078039Y0074454D02*
X0081042Y0074454D01*
X0087247Y0073703D02*
X0087998Y0074454D01*
X0089499Y0074454D01*
X0090250Y0073703D01*
X0090250Y0070701D01*
X0089499Y0069950D01*
X0087998Y0069950D01*
X0087247Y0070701D01*
X0087873Y0066954D02*
X0087873Y0066203D01*
X0086372Y0064702D01*
X0086372Y0062450D01*
X0089474Y0063201D02*
X0089474Y0063951D01*
X0090225Y0064702D01*
X0092477Y0064702D01*
X0092477Y0066954D02*
X0090225Y0066954D01*
X0089474Y0066203D01*
X0089474Y0065453D01*
X0090225Y0064702D01*
X0089474Y0063201D02*
X0090225Y0062450D01*
X0092477Y0062450D01*
X0092477Y0066954D01*
X0094853Y0069950D02*
X0094853Y0074454D01*
X0092602Y0074454D01*
X0091851Y0073703D01*
X0091851Y0072202D01*
X0092602Y0071451D01*
X0094853Y0071451D01*
X0096455Y0070701D02*
X0097205Y0069950D01*
X0098707Y0069950D01*
X0099457Y0070701D01*
X0099457Y0073703D01*
X0098707Y0074454D01*
X0097205Y0074454D01*
X0096455Y0073703D01*
X0101059Y0074454D02*
X0104061Y0069950D01*
X0105663Y0070701D02*
X0106413Y0069950D01*
X0107915Y0069950D01*
X0108665Y0070701D01*
X0108665Y0073703D01*
X0107915Y0074454D01*
X0106413Y0074454D01*
X0105663Y0073703D01*
X0110267Y0074454D02*
X0113269Y0074454D01*
X0113269Y0069950D01*
X0110267Y0069950D01*
X0111768Y0072202D02*
X0113269Y0072202D01*
X0114871Y0072202D02*
X0115621Y0071451D01*
X0117873Y0071451D01*
X0119474Y0071451D02*
X0119474Y0070701D01*
X0120225Y0069950D01*
X0121726Y0069950D01*
X0122477Y0070701D01*
X0121726Y0072202D02*
X0120225Y0072202D01*
X0119474Y0071451D01*
X0117873Y0069950D02*
X0117873Y0074454D01*
X0115621Y0074454D01*
X0114871Y0073703D01*
X0114871Y0072202D01*
X0119474Y0073703D02*
X0120225Y0074454D01*
X0121726Y0074454D01*
X0122477Y0073703D01*
X0122477Y0072953D01*
X0121726Y0072202D01*
X0092477Y0059454D02*
X0092477Y0054950D01*
X0089474Y0054950D02*
X0089474Y0059454D01*
X0090976Y0057953D01*
X0092477Y0059454D01*
X0087873Y0059454D02*
X0087873Y0055701D01*
X0087122Y0054950D01*
X0085621Y0054950D01*
X0084871Y0055701D01*
X0084871Y0059454D01*
X0083269Y0059454D02*
X0083269Y0054950D01*
X0080267Y0054950D01*
X0078665Y0054950D02*
X0078665Y0059454D01*
X0078665Y0057202D02*
X0075663Y0057202D01*
X0075663Y0059454D02*
X0075663Y0054950D01*
X0078665Y0062450D02*
X0078665Y0066954D01*
X0076413Y0066954D01*
X0075663Y0066203D01*
X0075663Y0064702D01*
X0076413Y0063951D01*
X0078665Y0063951D01*
X0074061Y0064702D02*
X0072560Y0064702D01*
X0084871Y0066203D02*
X0084871Y0066954D01*
X0084871Y0066203D02*
X0086372Y0064702D01*
X0058022Y0069950D02*
X0056521Y0069950D01*
X0057271Y0069950D02*
X0057271Y0074454D01*
X0056521Y0074454D02*
X0058022Y0074454D01*
X0054953Y0074454D02*
X0051950Y0069950D01*
X0051950Y0074454D01*
X0050349Y0074454D02*
X0047346Y0074454D01*
X0048848Y0074454D02*
X0048848Y0069950D01*
X0045745Y0069950D02*
X0042742Y0069950D01*
X0041141Y0069950D02*
X0041141Y0074454D01*
X0038889Y0074454D01*
X0038138Y0073703D01*
X0038138Y0072202D01*
X0038889Y0071451D01*
X0041141Y0071451D01*
X0039640Y0071451D02*
X0038138Y0069950D01*
X0036537Y0069950D02*
X0036537Y0074454D01*
X0033535Y0074454D01*
X0031933Y0072953D02*
X0030432Y0074454D01*
X0028931Y0072953D01*
X0028931Y0069950D01*
X0027329Y0070701D02*
X0026579Y0069950D01*
X0025077Y0069950D01*
X0024327Y0070701D01*
X0022725Y0069950D02*
X0019723Y0069950D01*
X0022725Y0069950D02*
X0022725Y0074454D01*
X0019723Y0074454D01*
X0021224Y0072202D02*
X0022725Y0072202D01*
X0024327Y0073703D02*
X0025077Y0074454D01*
X0026579Y0074454D01*
X0027329Y0073703D01*
X0027329Y0070701D01*
X0028931Y0072202D02*
X0031933Y0072202D01*
X0031933Y0072953D02*
X0031933Y0069950D01*
X0035036Y0072202D02*
X0036537Y0072202D01*
X0042742Y0074454D02*
X0045745Y0074454D01*
X0045745Y0069950D01*
X0045745Y0072202D02*
X0044244Y0072202D01*
X0054953Y0069950D02*
X0054953Y0074454D01*
X0056809Y0046954D02*
X0056059Y0046203D01*
X0056059Y0045453D01*
X0056809Y0044702D01*
X0056059Y0043951D01*
X0056059Y0043201D01*
X0056809Y0042450D01*
X0058311Y0042450D01*
X0059061Y0043201D01*
X0057560Y0044702D02*
X0056809Y0044702D01*
X0059061Y0046203D02*
X0058311Y0046954D01*
X0056809Y0046954D01*
X0049227Y0012953D02*
X0049978Y0012202D01*
M02*
