%
M48
M72
T01C0.0157
T02C0.0400
%
T01
X2023Y970
X3523Y970
X5023Y970
X6523Y970
X8023Y970
X9523Y970
X11023Y970
X12523Y970
X8073Y3470
X8073Y4220
X8073Y4970
X8873Y5470
X7673Y5970
X7673Y6520
X8023Y7470
X9523Y7470
X11023Y7470
X12523Y7470
X6523Y7470
X5023Y7470
X3523Y7470
X2023Y7470
X4123Y4970
X5523Y5020
X5523Y3470
X4123Y3470
T02
X3273Y2220
X3273Y4220
X3273Y6220
X11273Y6220
X11273Y4220
X11273Y2220
M30
