G75*
%MOIN*%
%OFA0B0*%
%FSLAX25Y25*%
%IPPOS*%
%LPD*%
%AMOC8*
5,1,8,0,0,1.08239X$1,22.5*
%
%ADD10R,0.06112X0.04537*%
%ADD11OC8,0.10600*%
%ADD12R,0.09261X0.02962*%
%ADD13R,0.06112X0.04143*%
%ADD14R,0.04143X0.06112*%
D10*
X0048396Y0037460D03*
X0057058Y0041200D03*
X0048396Y0044940D03*
D11*
X0032727Y0022200D03*
X0032727Y0042200D03*
X0032727Y0062200D03*
X0112727Y0062200D03*
X0112727Y0042200D03*
X0112727Y0022200D03*
D12*
X0092963Y0034700D03*
X0092963Y0039700D03*
X0092963Y0044700D03*
X0092963Y0049700D03*
X0072491Y0049700D03*
X0072491Y0044700D03*
X0072491Y0039700D03*
X0072491Y0034700D03*
D13*
X0070727Y0026743D03*
X0070727Y0019657D03*
X0096227Y0019657D03*
X0096227Y0026743D03*
X0070727Y0057657D03*
X0070727Y0064743D03*
X0045227Y0065743D03*
X0045227Y0058657D03*
X0045227Y0025743D03*
X0045227Y0018657D03*
D14*
X0054184Y0019200D03*
X0061270Y0019200D03*
X0061270Y0027200D03*
X0054184Y0027200D03*
X0080684Y0027200D03*
X0087770Y0027200D03*
X0087770Y0019200D03*
X0080684Y0019200D03*
X0061270Y0057200D03*
X0054184Y0057200D03*
X0054184Y0065200D03*
X0061270Y0065200D03*
X0084184Y0062200D03*
X0091270Y0062200D03*
M02*
